<svg version="1.1" id="Layer_1" xmlns="http://www.w3.org/2000/svg" xmlns:xlink="http://www.w3.org/1999/xlink" x="0px" y="0px"
	 width="100%" viewBox="0 0 1920 1080" enable-background="new 0 0 1920 1080" xml:space="preserve">
<path fill="#FFFFFF" opacity="1.000000" stroke="none" 
	d="
M1921.000000,780.000000 
	C1921.000000,880.306274 1921.000000,980.612549 1921.000000,1081.000000 
	C1512.637329,1081.000000 1104.274536,1081.000000 695.330200,1080.691040 
	C686.709656,1072.583862 678.670654,1064.785522 669.715881,1056.098877 
	C675.775696,1050.673340 680.939270,1046.050293 685.887878,1041.619629 
	C680.890808,1036.405640 676.336914,1031.653931 671.934326,1026.598633 
	C688.326416,1009.720215 704.567078,993.145386 720.864441,976.512817 
	C717.623779,973.284485 714.732666,970.380371 711.815735,967.502502 
	C689.896484,945.876282 667.954956,924.272583 646.055786,902.626099 
	C632.791138,889.514526 619.562988,876.365723 606.389099,863.163147 
	C604.472351,861.242310 603.114014,860.245178 600.754211,862.734131 
	C590.443481,873.609070 580.067932,884.426147 569.539185,895.089722 
	C561.849854,902.877502 553.885010,910.393188 545.821045,917.998535 
	C545.598999,917.966797 545.150391,917.975403 545.092957,917.682678 
	C544.997681,916.994263 544.959839,916.598511 544.945801,915.803711 
	C543.870483,913.327332 543.041626,911.038818 541.616760,909.216370 
	C538.553528,905.297913 535.183289,901.619507 532.077026,897.543579 
	C549.206238,879.900574 566.211182,862.570557 583.153870,845.179993 
	C584.199768,844.106384 584.756226,842.556030 585.660095,840.886292 
	C584.732605,839.120850 583.853760,837.526794 582.613525,836.297363 
	C556.766724,810.676331 530.888611,785.086975 504.965790,759.542908 
	C503.872528,758.465698 502.289124,757.885925 500.843170,756.863586 
	C500.555817,756.342346 500.287201,756.255798 499.721191,756.351807 
	C499.495941,756.310486 499.087830,756.518433 498.757080,756.369690 
	C488.973419,747.155640 479.520508,738.090332 469.560455,728.538635 
	C452.644653,745.991882 435.998077,763.393677 419.092468,780.540039 
	C404.958252,794.875549 390.521027,808.912354 375.827576,823.061462 
	C371.187897,823.635254 369.670593,826.240234 369.963409,830.576050 
	C367.344696,833.747498 364.869049,836.625916 363.008148,838.789490 
	C360.044220,836.278809 357.811066,834.601868 355.828918,832.667664 
	C349.942108,826.923279 344.154114,821.077576 338.578491,814.994812 
	C357.273987,796.188110 375.655579,777.594604 394.227051,759.192688 
	C397.206970,756.239868 397.137207,754.543884 394.168274,751.665588 
	C376.602631,734.636902 359.166351,717.473572 341.789581,700.251587 
	C323.455475,682.080811 305.239685,663.790771 286.960999,645.564026 
	C285.708099,644.314697 284.361938,643.158813 283.109894,642.006165 
	C245.127426,680.298645 207.509720,718.223389 170.168350,755.869507 
	C172.491928,758.488892 174.316025,760.826172 176.424622,762.869934 
	C183.079346,769.320129 189.840591,775.660339 196.352844,782.339111 
	C189.174255,789.786255 182.203476,796.937439 174.837067,804.066772 
	C171.079239,804.222656 169.815918,806.124695 169.968567,809.597900 
	C168.964890,810.507629 168.108231,811.130127 167.122635,811.395386 
	C165.755585,809.699890 164.567139,808.311279 163.271957,807.030701 
	C144.725815,788.694153 126.134712,770.403015 107.619759,752.035034 
	C96.657570,741.159851 85.810158,730.169006 74.935280,718.853699 
	C74.389404,715.169067 74.207359,715.035767 71.668198,716.121216 
	C71.174767,715.826111 70.992874,715.568604 70.931099,714.851929 
	C68.633057,707.678284 63.367901,703.457947 57.813820,699.532654 
	C57.495213,699.307434 56.531681,699.994812 55.590614,700.114624 
	C54.618481,699.995361 53.631378,699.725830 53.271950,700.084778 
	C40.935467,712.405518 28.688322,724.815674 16.358253,737.142883 
	C11.321774,742.178223 6.124245,747.052490 0.999995,752.000000 
	C1.000000,501.700806 1.000000,251.401642 1.000000,1.102463 
	C1.132490,1.068308 1.264979,1.004212 1.397469,1.004211 
	C641.143494,0.999994 1280.889526,1.000000 1921.000000,1.000000 
	C1921.000000,117.362450 1921.000000,233.725281 1920.683350,350.434937 
	C1883.829834,314.649750 1847.292969,278.517731 1810.455933,242.088943 
	C1772.528564,280.407532 1735.071289,318.251221 1698.194336,355.508545 
	C1706.816406,364.569305 1715.167236,373.345001 1723.347900,382.432495 
	C1719.411133,386.678680 1715.729736,390.699493 1711.857788,394.527405 
	C1706.015015,400.304077 1700.039062,405.946106 1693.998901,411.284058 
	C1683.723877,400.831360 1673.568726,390.740753 1663.415161,380.648560 
	C1636.952515,354.345459 1610.492310,328.039948 1584.021240,301.745483 
	C1583.118652,300.848816 1582.109131,300.059814 1581.149414,299.220581 
	C1581.467529,299.703461 1581.785645,300.186340 1582.103882,300.669220 
	C1543.549561,337.776031 1504.995361,374.882812 1466.233521,412.189392 
	C1468.939331,415.103088 1469.986328,416.358154 1471.163330,417.476532 
	C1477.420532,423.422485 1483.854370,429.189606 1489.963867,435.282501 
	C1517.440918,462.684509 1544.823242,490.181305 1572.268188,517.615601 
	C1573.529663,518.876526 1575.064331,519.864197 1576.371704,521.336121 
	C1572.752197,525.386536 1569.274902,529.121338 1565.706055,532.766418 
	C1548.399536,550.441956 1531.091919,568.116455 1513.731323,585.738647 
	C1508.753784,590.791138 1503.597778,595.667908 1499.575317,599.597839 
	C1513.157104,613.807617 1526.152344,627.403870 1538.824829,641.110229 
	C1518.745361,661.280396 1498.988525,681.340393 1478.944702,701.691895 
	C1517.142822,739.399109 1555.320312,777.085754 1593.786743,815.057800 
	C1595.118896,813.568176 1596.176025,812.276978 1597.344482,811.095886 
	C1629.282471,778.810486 1661.223389,746.528076 1693.208130,714.289185 
	C1694.549194,712.937439 1696.316162,712.008240 1698.111084,711.139771 
	C1709.572144,722.753906 1720.785889,734.130920 1732.048950,745.458862 
	C1738.681763,752.129822 1745.322388,758.796021 1752.084717,765.334656 
	C1764.561279,777.399048 1777.130249,789.367920 1789.583252,801.302246 
	C1791.904663,798.854553 1794.569580,795.951416 1797.333008,793.145325 
	C1818.936157,771.208374 1840.576172,749.307800 1862.147949,727.340088 
	C1864.395996,725.050659 1865.750366,726.239197 1867.481323,727.913635 
	C1879.415649,739.458069 1891.438599,750.910706 1903.364258,762.464050 
	C1909.317871,768.231934 1915.125977,774.149902 1921.000000,780.000000 
M1729.645264,252.120422 
	C1733.092041,248.380463 1736.457153,244.561005 1740.000610,240.914993 
	C1752.396729,228.160004 1764.854370,215.464920 1777.421387,202.611359 
	C1738.510620,164.484451 1699.804810,126.558434 1661.022095,88.556969 
	C1622.693237,127.688385 1584.872070,166.301437 1546.741577,205.230270 
	C1549.388794,207.471054 1552.023682,209.411469 1554.319336,211.693130 
	C1566.358032,223.659164 1578.321289,235.701233 1590.285645,247.741776 
	C1592.971069,250.444138 1595.556396,253.245758 1597.532593,256.205353 
	C1594.334229,259.364197 1591.118896,262.506012 1587.941040,265.685303 
	C1581.539185,272.090424 1581.554321,272.092041 1587.864258,278.370880 
	C1612.656372,303.041321 1637.442139,327.718079 1662.237793,352.384949 
	C1663.478882,353.619598 1664.790405,354.783295 1666.263306,356.161774 
	C1694.203735,327.835632 1721.737915,299.921448 1749.650391,271.623718 
	C1742.600708,265.040863 1736.066040,258.938843 1729.645264,252.120422 
M107.866669,725.207397 
	C116.310364,733.708374 124.712204,742.251587 133.229156,750.678528 
	C135.193634,752.622192 137.552368,754.167419 140.529922,755.953186 
	C143.893646,755.796265 145.182068,753.912415 145.210129,750.146484 
	C170.789032,724.178040 196.367935,698.209534 222.437973,671.742432 
	C216.212601,665.821533 209.282272,659.230164 202.582291,651.985535 
	C207.194443,647.007080 211.618729,641.837219 216.456329,637.088379 
	C227.846756,625.906860 239.434372,614.926208 251.242004,603.576050 
	C211.438049,564.603271 172.803238,526.775208 133.941925,488.725342 
	C95.770882,527.664551 57.828426,566.370544 19.709747,605.256287 
	C22.640047,607.726807 25.315565,609.684998 27.641788,611.994873 
	C38.277122,622.555359 48.825340,633.203796 59.381489,643.843750 
	C63.360630,647.854553 67.276726,651.927917 70.566826,656.193909 
	C66.433289,660.282227 62.493114,664.594055 58.106113,668.389404 
	C54.489391,671.518433 54.926361,673.653320 58.206978,676.743408 
	C67.973969,685.943176 77.473068,695.427429 87.034927,705.564880 
	C89.005081,708.510437 90.519096,711.947876 93.046967,714.291992 
	C97.375198,718.305664 100.781776,723.766174 107.866669,725.207397 
z"/>
<path fill="#09B2FE" opacity="1.000000" stroke="none" 
	d="
M1921.000000,779.550049 
	C1915.125977,774.149902 1909.317871,768.231934 1903.364258,762.464050 
	C1891.438599,750.910706 1879.415649,739.458069 1867.481323,727.913635 
	C1865.750366,726.239197 1864.395996,725.050659 1862.147949,727.340088 
	C1840.576172,749.307800 1818.936157,771.208374 1797.333008,793.145325 
	C1794.569580,795.951416 1791.904663,798.854553 1789.583252,801.302246 
	C1777.130249,789.367920 1764.561279,777.399048 1752.084717,765.334656 
	C1745.322388,758.796021 1738.681763,752.129822 1732.048950,745.458862 
	C1720.785889,734.130920 1709.572144,722.753906 1697.951904,710.870605 
	C1689.831909,702.810059 1682.018311,695.353882 1674.483643,687.625732 
	C1673.708984,686.831177 1674.039917,684.048523 1674.834351,682.819702 
	C1676.597290,680.092896 1678.980347,677.767151 1681.437500,675.182007 
	C1682.416382,674.579590 1683.135132,674.139282 1683.710327,673.557068 
	C1707.669067,649.307190 1731.621826,625.051392 1755.538696,600.760132 
	C1756.538818,599.744141 1757.189697,598.384338 1758.352295,597.142578 
	C1766.764893,589.016418 1774.937012,581.036865 1782.849243,572.807251 
	C1787.285889,568.192810 1787.504883,568.002441 1791.740479,572.105896 
	C1801.740112,581.793457 1811.773193,591.446411 1821.933105,601.420654 
	C1838.817871,618.345642 1855.562012,634.963257 1872.676880,651.948914 
	C1876.428223,648.078247 1879.740112,644.597717 1883.119873,641.184326 
	C1895.734497,628.444275 1908.371338,615.726257 1921.000000,603.000000 
	C1921.000000,605.370544 1921.000000,607.741150 1920.706177,610.710815 
	C1905.915649,626.110718 1891.418945,640.911499 1876.941528,655.692627 
	C1886.531494,665.533447 1895.755737,674.998962 1905.600830,685.101440 
	C1893.410645,696.985291 1881.183594,708.904968 1870.009521,719.798279 
	C1876.816772,727.102356 1883.260742,734.444885 1890.166260,741.324219 
	C1900.270630,751.390320 1910.705811,761.124451 1921.000000,771.000000 
	C1921.000000,773.700012 1921.000000,776.400024 1921.000000,779.550049 
z"/>
<path fill="#0FCEFE" opacity="1.000000" stroke="none" 
	d="
M546.043030,918.030212 
	C553.885010,910.393188 561.849854,902.877502 569.539185,895.089722 
	C580.067932,884.426147 590.443481,873.609070 600.754211,862.734131 
	C603.114014,860.245178 604.472351,861.242310 606.389099,863.163147 
	C619.562988,876.365723 632.791138,889.514526 646.055786,902.626099 
	C667.954956,924.272583 689.896484,945.876282 711.815735,967.502502 
	C714.732666,970.380371 717.623779,973.284485 720.864441,976.512817 
	C704.567078,993.145386 688.326416,1009.720215 671.654053,1026.765869 
	C666.448120,1032.152100 661.673767,1037.067749 656.609375,1042.131226 
	C643.546143,1055.186157 630.773071,1068.093018 618.000000,1081.000000 
	C609.645752,1081.000000 601.291504,1081.000000 592.325684,1080.699951 
	C573.526611,1062.558472 555.339172,1044.717163 536.978149,1026.590576 
	C530.849792,1020.354919 524.953613,1014.344482 518.920898,1008.474365 
	C514.451477,1004.125366 509.804382,999.959045 505.120941,995.408936 
	C501.673920,991.692566 498.296967,988.321472 495.025970,984.850403 
	C492.629547,982.307373 490.372314,979.633118 488.026428,977.008667 
	C487.999817,977.000000 488.009735,977.055054 488.331207,976.961670 
	C489.284149,976.247620 489.915619,975.627014 490.819702,974.858521 
	C495.059357,970.655823 499.026398,966.601074 503.290009,962.283264 
	C503.749847,961.349915 503.913116,960.679565 504.042206,960.008301 
	C504.007996,960.007446 504.028381,960.072815 504.397827,960.195557 
	C504.869141,959.888489 504.971008,959.458618 505.040100,959.018066 
	C505.007324,959.007446 505.028839,959.072937 505.399963,959.197937 
	C505.871765,958.891907 505.972443,958.460938 506.040283,958.018677 
	C506.007446,958.007446 506.029999,958.073120 506.401367,958.200989 
	C506.872894,957.895996 506.973022,957.463135 507.040344,957.018799 
	C507.007507,957.007385 507.030457,957.072998 507.394958,957.197327 
	C507.863556,956.890320 507.967682,956.458923 508.039307,956.017212 
	C508.006805,956.006836 508.027679,956.071838 508.390839,956.181519 
	C508.859955,955.870056 508.965881,955.448975 509.039368,955.017334 
	C509.006897,955.006836 509.027954,955.071777 509.393738,955.181885 
	C509.863770,954.871216 509.968018,954.450562 510.038361,954.021851 
	C510.004425,954.013794 510.026581,954.079956 510.293579,954.321289 
	C511.069427,954.092346 511.578278,953.622070 512.390259,953.005249 
	C523.001648,942.465210 533.326538,932.088135 543.591614,921.652222 
	C544.596985,920.630066 545.234680,919.246155 546.043030,918.030212 
z"/>
<path fill="#7CD0B8" opacity="1.000000" stroke="none" 
	d="
M0.999995,752.468628 
	C6.124245,747.052490 11.321774,742.178223 16.358253,737.142883 
	C28.688322,724.815674 40.935467,712.405518 53.271950,700.084778 
	C53.631378,699.725830 54.618481,699.995361 55.753109,700.394653 
	C61.097561,705.626282 66.001823,710.435120 70.906082,715.243896 
	C70.992874,715.568604 71.174767,715.826111 71.814240,716.388916 
	C73.088173,717.584412 73.999641,718.407288 74.911110,719.230164 
	C85.810158,730.169006 96.657570,741.159851 107.619759,752.035034 
	C126.134712,770.403015 144.725815,788.694153 163.271957,807.030701 
	C164.567139,808.311279 165.755585,809.699890 167.029297,811.681396 
	C157.775101,821.979126 148.464890,831.614319 139.220276,841.311951 
	C138.013077,842.578308 137.142868,844.165955 135.855469,845.849243 
	C121.053360,860.755310 106.512367,875.416992 91.668427,889.932678 
	C89.581070,888.162109 87.796654,886.537476 86.009460,884.910339 
	C73.783424,897.251099 61.956905,909.188599 49.828163,920.962036 
	C48.206753,919.540894 46.868015,918.303650 45.571407,917.023621 
	C30.710558,902.352844 15.856141,887.675537 1.000004,873.000000 
	C1.000000,832.979126 1.000000,792.958191 0.999995,752.468628 
z"/>
<path fill="#6DB5D3" opacity="1.000000" stroke="none" 
	d="
M1723.518066,382.120758 
	C1715.167236,373.345001 1706.816406,364.569305 1698.194336,355.508545 
	C1735.071289,318.251221 1772.528564,280.407532 1810.455933,242.088943 
	C1847.292969,278.517731 1883.829834,314.649750 1920.683350,350.890869 
	C1921.000000,353.700012 1921.000000,356.400024 1920.669678,359.622986 
	C1902.044434,378.451294 1883.749268,396.756683 1865.144531,414.998444 
	C1864.077637,414.293457 1863.274658,413.698364 1862.569336,413.004089 
	C1835.444580,386.301178 1808.331055,359.586945 1781.206055,332.884247 
	C1779.725586,331.426666 1778.161255,330.054352 1776.635864,328.642365 
	C1776.944702,329.270203 1777.253418,329.898010 1777.562256,330.525818 
	C1759.547485,347.724152 1741.532837,364.922485 1723.518066,382.120758 
z"/>
<path fill="#FEFFFF" opacity="1.000000" stroke="none" 
	d="
M1.000008,1021.000000 
	C1.000000,1007.645752 1.000000,994.291565 1.264117,980.269897 
	C5.951708,975.095520 10.357793,970.571289 14.801832,966.084656 
	C28.121483,952.637451 41.455963,939.204895 54.983345,926.002563 
	C55.952656,925.834045 56.882290,925.588806 57.469959,925.001404 
	C66.521820,915.954285 75.506187,906.839600 84.573700,897.808289 
	C85.822189,896.564758 87.431725,895.683655 89.115738,894.890442 
	C124.478813,929.579285 159.600281,964.012512 194.940018,998.659668 
	C181.573639,1012.342285 168.613815,1025.709351 155.532349,1038.956299 
	C149.239655,1045.328613 142.717575,1051.474487 136.166489,1057.365967 
	C135.503265,1056.372925 135.021545,1055.687744 134.435608,1055.107666 
	C112.350983,1033.243286 90.259140,1011.386230 68.152428,989.544189 
	C67.478050,988.877930 66.636116,988.381226 66.004890,987.905396 
	C53.736282,1000.004333 41.644878,1011.856812 29.645620,1023.801819 
	C25.539150,1027.889648 21.663269,1032.209106 17.378925,1036.293701 
	C11.717196,1031.109863 6.358605,1026.054932 1.000008,1021.000000 
z"/>
<path fill="#0FCEFE" opacity="1.000000" stroke="none" 
	d="
M525.000000,1081.000000 
	C522.958313,1081.000000 520.916687,1081.000000 518.281860,1080.707153 
	C512.167603,1075.177124 506.646545,1069.939941 500.940887,1064.435547 
	C494.302307,1057.738770 487.903625,1051.252197 481.374634,1044.899780 
	C477.126587,1040.766602 472.688904,1036.828369 468.211243,1032.485107 
	C461.797119,1026.099365 455.507935,1020.031433 449.057404,1013.658325 
	C439.290375,1003.789734 429.684723,994.226318 419.737244,984.322571 
	C413.808929,990.565002 408.345612,996.317810 402.589417,1002.210632 
	C384.850586,1020.090759 367.404663,1037.830933 349.764893,1055.768188 
	C358.366821,1064.369141 366.683380,1072.684570 374.999939,1081.000000 
	C300.312439,1081.000000 225.624878,1081.000000 150.581543,1080.694336 
	C151.562286,1078.706299 152.898788,1077.023804 154.542694,1075.218018 
	C155.723495,1074.338745 156.652740,1073.638062 157.462112,1072.818848 
	C178.228973,1051.799438 199.005188,1030.788940 219.720703,1009.718811 
	C223.645996,1005.726318 227.321976,1001.488647 231.450302,997.272217 
	C241.426758,987.720154 251.065918,978.260010 260.905182,968.603455 
	C272.377655,979.638245 283.576599,990.409851 294.929535,1001.477661 
	C311.831482,1018.391602 328.579407,1035.009399 346.314514,1052.606689 
	C347.754852,1050.567871 348.635712,1048.894043 349.901154,1047.594971 
	C364.665344,1032.437622 379.498199,1017.347290 394.277496,1002.204590 
	C395.766846,1000.678650 397.024231,998.926270 398.706726,997.182129 
	C404.685669,991.487366 410.483521,986.018311 415.949310,980.235352 
	C418.551819,977.482056 420.253754,977.661438 422.792297,980.270142 
	C429.970428,987.646729 437.331055,994.848450 444.720703,1002.015076 
	C447.430359,1004.642883 450.423431,1006.978455 453.369141,1009.712158 
	C459.899963,1016.159546 466.348846,1022.342041 472.871643,1028.840210 
	C483.565765,1039.518188 494.186035,1049.880615 504.910278,1060.560791 
	C511.676147,1067.585815 518.338074,1074.292969 525.000000,1081.000000 
z"/>
<path fill="#6DB5D3" opacity="1.000000" stroke="none" 
	d="
M1821.792603,601.113403 
	C1811.773193,591.446411 1801.740112,581.793457 1791.740479,572.105896 
	C1787.504883,568.002441 1787.285889,568.192810 1782.849243,572.807251 
	C1774.937012,581.036865 1766.764893,589.016418 1758.006592,597.075928 
	C1756.416870,596.320129 1755.452881,595.658203 1754.636719,594.847717 
	C1729.851318,570.233215 1705.079346,545.605469 1680.313965,520.970886 
	C1679.509888,520.171021 1678.799683,519.276733 1678.402100,518.828369 
	C1688.098877,508.742096 1697.626953,498.831299 1707.453125,489.063660 
	C1731.435547,512.229187 1755.119873,535.251526 1779.066406,558.528809 
	C1791.916870,545.303711 1804.198364,532.650513 1816.495483,520.012451 
	C1827.754639,508.441010 1838.985840,496.841705 1850.325562,485.349396 
	C1853.916016,481.710541 1857.815308,478.376495 1861.920410,475.019867 
	C1866.566528,479.226929 1870.865723,483.317108 1876.166870,488.360626 
	C1878.930420,485.105011 1881.239258,482.036530 1883.905151,479.317871 
	C1889.355469,473.759369 1894.997681,468.388824 1900.882080,462.958099 
	C1907.802246,468.983582 1914.401123,474.991791 1921.000000,481.000000 
	C1921.000000,518.020874 1921.000000,555.041809 1920.681885,592.426208 
	C1912.249756,584.768127 1904.091309,576.790894 1896.035767,568.711243 
	C1889.281372,561.936890 1882.647095,555.042908 1875.974854,547.837769 
	C1877.089722,546.053162 1878.057739,544.502930 1879.310181,543.233521 
	C1886.780029,535.663757 1894.313232,528.156677 1901.830688,520.634155 
	C1903.404175,519.059509 1905.117432,517.580933 1902.795288,515.260315 
	C1893.772339,506.243652 1884.779541,497.197021 1875.621826,488.007324 
	C1865.946655,497.631165 1856.588135,506.809174 1847.481201,516.230408 
	C1846.697754,517.040833 1846.909424,520.117004 1847.798828,521.029663 
	C1853.698486,527.084045 1859.996094,532.748230 1865.981567,538.722351 
	C1868.860352,541.595581 1871.340820,544.867737 1873.892822,548.278015 
	C1856.453369,566.102356 1839.122925,583.607910 1821.792603,601.113403 
z"/>
<path fill="#FEFFFF" opacity="1.000000" stroke="none" 
	d="
M449.218781,1013.963501 
	C455.507935,1020.031433 461.797119,1026.099365 467.892639,1032.660156 
	C464.824860,1036.088257 461.950775,1039.023560 458.206970,1042.847046 
	C468.991150,1053.388184 479.613220,1063.770874 490.057648,1073.979858 
	C488.225494,1076.522949 486.612762,1078.761475 485.000031,1081.000000 
	C448.645782,1081.000000 412.291534,1081.000000 375.468628,1081.000000 
	C366.683380,1072.684570 358.366821,1064.369141 349.764893,1055.768188 
	C367.404663,1037.830933 384.850586,1020.090759 402.765747,1002.495850 
	C412.726807,1012.291504 422.218658,1021.941956 432.032562,1031.919800 
	C438.248871,1025.424927 443.733826,1019.694275 449.218781,1013.963501 
z"/>
<path fill="#7CD0B8" opacity="1.000000" stroke="none" 
	d="
M17.682032,1036.422729 
	C21.663269,1032.209106 25.539150,1027.889648 29.645620,1023.801819 
	C41.644878,1011.856812 53.736282,1000.004333 66.004890,987.905396 
	C66.636116,988.381226 67.478050,988.877930 68.152428,989.544189 
	C90.259140,1011.386230 112.350983,1033.243286 134.435608,1055.107666 
	C135.021545,1055.687744 135.503265,1056.372925 136.068115,1057.653076 
	C129.068436,1065.864746 122.034218,1073.432373 115.000000,1081.000000 
	C97.645775,1081.000000 80.291542,1081.000000 62.318676,1080.703857 
	C51.603176,1070.534302 41.457706,1060.709839 31.430862,1050.765747 
	C26.729946,1046.103638 22.257805,1041.210938 17.682032,1036.422729 
z"/>
<path fill="#FEFFFF" opacity="1.000000" stroke="none" 
	d="
M1821.933105,601.420654 
	C1839.122925,583.607910 1856.453369,566.102356 1874.222534,548.284119 
	C1875.094116,548.048218 1875.526855,548.125061 1875.959595,548.201904 
	C1882.647095,555.042908 1889.281372,561.936890 1896.035767,568.711243 
	C1904.091309,576.790894 1912.249756,584.768127 1920.681885,592.894897 
	C1921.000000,596.030579 1921.000000,599.061218 1921.000000,602.545898 
	C1908.371338,615.726257 1895.734497,628.444275 1883.119873,641.184326 
	C1879.740112,644.597717 1876.428223,648.078247 1872.676880,651.948914 
	C1855.562012,634.963257 1838.817871,618.345642 1821.933105,601.420654 
z"/>
<path fill="#FDFFFF" opacity="1.000000" stroke="none" 
	d="
M1921.000000,770.531372 
	C1910.705811,761.124451 1900.270630,751.390320 1890.166260,741.324219 
	C1883.260742,734.444885 1876.816772,727.102356 1870.009521,719.798279 
	C1881.183594,708.904968 1893.410645,696.985291 1905.600830,685.101440 
	C1895.755737,674.998962 1886.531494,665.533447 1876.941528,655.692627 
	C1891.418945,640.911499 1905.915649,626.110718 1920.706177,611.155029 
	C1921.000000,664.020874 1921.000000,717.041809 1921.000000,770.531372 
z"/>
<path fill="#0FB4FC" opacity="1.000000" stroke="none" 
	d="
M1921.000000,480.555847 
	C1914.401123,474.991791 1907.802246,468.983582 1900.844482,462.590393 
	C1896.066772,457.588989 1891.647827,452.972565 1886.931885,448.045898 
	C1883.060303,452.036438 1879.676758,455.436981 1876.391602,458.930084 
	C1871.416138,464.220520 1866.509399,469.575470 1861.573364,474.903015 
	C1857.815308,478.376495 1853.916016,481.710541 1850.325562,485.349396 
	C1838.985840,496.841705 1827.754639,508.441010 1816.495483,520.012451 
	C1804.198364,532.650513 1791.916870,545.303711 1779.066406,558.528809 
	C1755.119873,535.251526 1731.435547,512.229187 1707.344971,488.744141 
	C1702.371948,483.698761 1697.873413,479.045349 1693.224243,474.547882 
	C1683.218018,464.868073 1673.134155,455.268585 1663.129883,445.316467 
	C1672.265869,435.399017 1681.367920,425.814270 1690.427246,416.189331 
	C1691.761475,414.772003 1692.893921,413.164734 1694.119629,411.645325 
	C1700.039062,405.946106 1706.015015,400.304077 1711.857788,394.527405 
	C1715.729736,390.699493 1719.411133,386.678680 1723.347900,382.432495 
	C1741.532837,364.922485 1759.547485,347.724152 1777.562256,330.525818 
	C1777.253418,329.898010 1776.944702,329.270203 1776.635864,328.642365 
	C1778.161255,330.054352 1779.725586,331.426666 1781.206055,332.884247 
	C1808.331055,359.586945 1835.444580,386.301178 1862.569336,413.004089 
	C1863.274658,413.698364 1864.077637,414.293457 1865.285645,415.329651 
	C1872.446777,422.377502 1879.258667,428.932465 1885.814453,435.734375 
	C1888.254883,438.266174 1889.915527,438.347076 1892.193359,435.676453 
	C1894.555420,432.906952 1897.240723,430.408569 1899.835327,427.842834 
	C1906.875854,420.880646 1913.943237,413.945709 1921.000000,406.999969 
	C1921.000000,409.370575 1921.000000,411.741119 1920.678589,414.653290 
	C1910.794800,424.956421 1901.232422,434.717957 1891.289307,444.868042 
	C1896.502686,449.455170 1901.188477,453.578125 1905.934082,457.996155 
	C1910.996094,463.194153 1915.998047,468.097076 1921.000000,473.000000 
	C1921.000000,475.370575 1921.000000,477.741119 1921.000000,480.555847 
M1860.831421,418.623596 
	C1854.758057,412.722687 1848.658447,406.848358 1842.615845,400.916046 
	C1821.615845,380.299805 1800.638062,359.660919 1779.638306,339.044403 
	C1778.843872,338.264465 1777.908813,337.627777 1776.981323,336.877502 
	C1776.237427,337.451538 1775.669312,337.792572 1775.220581,338.250549 
	C1760.210327,353.567535 1745.204346,368.888580 1730.235596,384.246063 
	C1729.586426,384.911957 1729.295654,385.927002 1728.164307,386.895813 
	C1726.906982,387.948425 1725.550903,388.903900 1724.407349,390.068329 
	C1708.305420,406.463867 1692.249634,422.904968 1676.126587,439.279816 
	C1674.431030,441.001709 1672.380249,442.373962 1671.079712,443.432220 
	C1677.211792,449.920197 1682.318726,455.637177 1687.764526,461.010773 
	C1695.689453,468.830383 1703.858398,476.402740 1712.200195,484.687531 
	C1734.435547,506.573883 1756.670898,528.460205 1778.981201,550.420288 
	C1780.354248,549.150024 1781.235718,548.398621 1782.045166,547.576416 
	C1806.322632,522.918823 1830.598022,498.259064 1854.844849,473.571228 
	C1855.742798,472.656952 1856.350952,471.457916 1857.748047,470.160065 
	C1867.007202,461.151978 1876.266235,452.143860 1885.912476,442.759094 
	C1877.157227,434.486023 1869.112549,426.884369 1860.831421,418.623596 
z"/>
<path fill="#4CB694" opacity="1.000000" stroke="none" 
	d="
M525.468628,1081.000000 
	C518.338074,1074.292969 511.676147,1067.585815 505.089783,1060.247070 
	C506.533417,1058.170898 507.880554,1056.706055 509.273010,1055.285400 
	C518.560547,1045.810303 527.857666,1036.344604 537.151733,1026.875854 
	C555.339172,1044.717163 573.526611,1062.558472 591.857056,1080.699951 
	C569.979126,1081.000000 547.958191,1081.000000 525.468628,1081.000000 
z"/>
<path fill="#FEFFFF" opacity="1.000000" stroke="none" 
	d="
M1.000004,873.468628 
	C15.856141,887.675537 30.710558,902.352844 45.571407,917.023621 
	C46.868015,918.303650 48.206753,919.540894 49.704971,921.268433 
	C34.731934,937.275818 19.588024,952.820801 4.409310,968.331604 
	C3.408750,969.354065 2.142615,970.116577 1.000010,971.000000 
	C1.000000,938.645752 1.000000,906.291565 1.000004,873.468628 
z"/>
<path fill="#17D0FD" opacity="1.000000" stroke="none" 
	d="
M1.000010,971.449951 
	C2.142615,970.116577 3.408750,969.354065 4.409310,968.331604 
	C19.588024,952.820801 34.731934,937.275818 50.007195,921.432495 
	C61.956905,909.188599 73.783424,897.251099 86.009460,884.910339 
	C87.796654,886.537476 89.581070,888.162109 91.812584,890.228149 
	C128.866867,926.583618 165.474045,962.497620 203.327301,999.634155 
	C194.490875,1007.948059 185.670120,1015.826294 177.334976,1024.188599 
	C164.996750,1036.567139 153.003113,1049.289185 140.568115,1062.020752 
	C134.182312,1068.451050 128.091156,1074.725586 121.999992,1081.000000 
	C119.958336,1081.000000 117.916664,1081.000000 115.437500,1081.000000 
	C122.034218,1073.432373 129.068436,1065.864746 136.201019,1058.010010 
	C142.717575,1051.474487 149.239655,1045.328613 155.532349,1038.956299 
	C168.613815,1025.709351 181.573639,1012.342285 194.940018,998.659668 
	C159.600281,964.012512 124.478813,929.579285 88.967079,894.638062 
	C87.104645,894.496826 85.190842,894.398804 84.233879,895.307983 
	C79.044365,900.237671 74.037376,905.364380 69.072273,910.524048 
	C64.243942,915.541626 59.542046,920.680786 54.784637,925.766602 
	C41.455963,939.204895 28.121483,952.637451 14.801832,966.084656 
	C10.357793,970.571289 5.951708,975.095520 1.264117,979.801270 
	C1.000000,977.299988 1.000000,974.599976 1.000010,971.449951 
z"/>
<path fill="#FDFFFF" opacity="1.000000" stroke="none" 
	d="
M1921.000000,406.531311 
	C1913.943237,413.945709 1906.875854,420.880646 1899.835327,427.842834 
	C1897.240723,430.408569 1894.555420,432.906952 1892.193359,435.676453 
	C1889.915527,438.347076 1888.254883,438.266174 1885.814453,435.734375 
	C1879.258667,428.932465 1872.446777,422.377502 1865.595215,415.393311 
	C1883.749268,396.756683 1902.044434,378.451294 1920.669678,360.072937 
	C1921.000000,375.354218 1921.000000,390.708466 1921.000000,406.531311 
z"/>
<path fill="#7CD0B8" opacity="1.000000" stroke="none" 
	d="
M53.000015,1081.000000 
	C35.760818,1081.000000 18.521635,1081.000000 1.000000,1081.000000 
	C1.000000,1071.647583 1.000000,1062.292480 1.314992,1052.355957 
	C5.373716,1048.155151 9.117447,1044.535645 13.174717,1041.055786 
	C24.829126,1052.373657 36.190380,1063.531372 47.491486,1074.749756 
	C49.457943,1076.701904 51.170311,1078.910034 53.000015,1081.000000 
z"/>
<path fill="#7DD0B9" opacity="1.000000" stroke="none" 
	d="
M656.899475,1041.983276 
	C661.673767,1037.067749 666.448120,1032.152100 671.502686,1027.069336 
	C676.336914,1031.653931 680.890808,1036.405640 685.887878,1041.619629 
	C680.939270,1046.050293 675.775696,1050.673340 669.715881,1056.098877 
	C678.670654,1064.785522 686.709656,1072.583862 694.874268,1080.691040 
	C679.312439,1081.000000 663.624878,1081.000000 647.612305,1080.700195 
	C654.177490,1073.440918 661.000305,1066.412842 667.995605,1059.560913 
	C670.325867,1057.278442 670.299622,1055.636719 667.971680,1053.400879 
	C664.150513,1049.730835 660.577332,1045.802612 656.899475,1041.983276 
z"/>
<path fill="#4CB694" opacity="1.000000" stroke="none" 
	d="
M656.609375,1042.131226 
	C660.577332,1045.802612 664.150513,1049.730835 667.971680,1053.400879 
	C670.299622,1055.636719 670.325867,1057.278442 667.995605,1059.560913 
	C661.000305,1066.412842 654.177490,1073.440918 647.143677,1080.700195 
	C637.645752,1081.000000 628.291565,1081.000000 618.468628,1081.000000 
	C630.773071,1068.093018 643.546143,1055.186157 656.609375,1042.131226 
z"/>
<path fill="#7DD0B9" opacity="1.000000" stroke="none" 
	d="
M485.460663,1081.000000 
	C486.612762,1078.761475 488.225494,1076.522949 490.057648,1073.979858 
	C479.613220,1063.770874 468.991150,1053.388184 458.206970,1042.847046 
	C461.950775,1039.023560 464.824860,1036.088257 468.017578,1032.977783 
	C472.688904,1036.828369 477.126587,1040.766602 481.374634,1044.899780 
	C487.903625,1051.252197 494.302307,1057.738770 500.639130,1064.629150 
	C497.356995,1067.799194 494.192017,1070.508301 491.027039,1073.217529 
	C491.498047,1073.571533 491.969055,1073.925537 492.440063,1074.279541 
	C493.960052,1076.519653 495.480011,1078.759888 497.000000,1081.000000 
	C493.307098,1081.000000 489.614166,1081.000000 485.460663,1081.000000 
z"/>
<path fill="#FDFFFF" opacity="1.000000" stroke="none" 
	d="
M1905.874146,457.701050 
	C1901.188477,453.578125 1896.502686,449.455170 1891.289307,444.868042 
	C1901.232422,434.717957 1910.794800,424.956421 1920.678589,415.097443 
	C1921.000000,423.687561 1921.000000,432.375122 1920.703125,441.680054 
	C1915.562134,447.431976 1910.718140,452.566498 1905.874146,457.701050 
z"/>
<path fill="#15CFFB" opacity="1.000000" stroke="none" 
	d="
M53.449997,1081.000000 
	C51.170311,1078.910034 49.457943,1076.701904 47.491486,1074.749756 
	C36.190380,1063.531372 24.829126,1052.373657 13.043871,1040.765625 
	C8.732984,1036.557129 4.866479,1032.778564 0.999987,1029.000000 
	C1.000000,1026.629395 1.000000,1024.258911 1.000008,1021.444153 
	C6.358605,1026.054932 11.717196,1031.109863 17.378891,1036.293701 
	C22.257805,1041.210938 26.729946,1046.103638 31.430862,1050.765747 
	C41.457706,1060.709839 51.603176,1070.534302 61.850018,1080.703857 
	C59.299988,1081.000000 56.599972,1081.000000 53.449997,1081.000000 
z"/>
<path fill="#7DD0B9" opacity="1.000000" stroke="none" 
	d="
M122.468651,1081.000000 
	C128.091156,1074.725586 134.182312,1068.451050 140.865662,1062.201172 
	C145.716995,1066.597534 149.976151,1070.969482 154.235291,1075.341431 
	C152.898788,1077.023804 151.562286,1078.706299 150.112885,1080.694336 
	C140.979111,1081.000000 131.958206,1081.000000 122.468651,1081.000000 
z"/>
<path fill="#6EB6D3" opacity="1.000000" stroke="none" 
	d="
M1905.934082,457.996155 
	C1910.718140,452.566498 1915.562134,447.431976 1920.703125,442.148712 
	C1921.000000,452.020905 1921.000000,462.041779 1921.000000,472.531311 
	C1915.998047,468.097076 1910.996094,463.194153 1905.934082,457.996155 
z"/>
<path fill="#4CB694" opacity="1.000000" stroke="none" 
	d="
M497.468506,1081.000000 
	C495.480011,1078.759888 493.960052,1076.519653 492.440063,1074.279541 
	C491.969055,1073.925537 491.498047,1073.571533 491.027039,1073.217529 
	C494.192017,1070.508301 497.356995,1067.799194 500.823730,1064.896362 
	C506.646545,1069.939941 512.167603,1075.177124 517.844360,1080.707153 
	C511.312347,1081.000000 504.624725,1081.000000 497.468506,1081.000000 
z"/>
<path fill="#FDFFFF" opacity="1.000000" stroke="none" 
	d="
M0.999987,1029.468628 
	C4.866479,1032.778564 8.732984,1036.557129 12.730333,1040.625977 
	C9.117447,1044.535645 5.373716,1048.155151 1.314992,1051.887451 
	C1.000000,1044.645752 1.000000,1037.291504 0.999987,1029.468628 
z"/>
<path fill="#6DB5D3" opacity="1.000000" stroke="none" 
	d="
M1693.998901,411.284058 
	C1692.893921,413.164734 1691.761475,414.772003 1690.427246,416.189331 
	C1681.367920,425.814270 1672.265869,435.399017 1662.873413,445.559875 
	C1651.174927,457.576050 1639.804932,469.053528 1628.369629,480.465607 
	C1625.346069,483.483063 1622.121094,486.298828 1618.633545,489.172791 
	C1616.494873,487.775330 1614.711182,486.412262 1614.031372,485.892853 
	C1602.452271,497.019714 1591.252319,507.808197 1580.004883,518.546997 
	C1578.984009,519.521851 1577.656738,520.176025 1576.471802,520.979126 
	C1575.064331,519.864197 1573.529663,518.876526 1572.268188,517.615601 
	C1544.823242,490.181305 1517.440918,462.684509 1489.963867,435.282501 
	C1483.854370,429.189606 1477.420532,423.422485 1471.163330,417.476532 
	C1469.986328,416.358154 1468.939331,415.103088 1466.233521,412.189392 
	C1504.995361,374.882812 1543.549561,337.776031 1582.103882,300.669220 
	C1581.785645,300.186340 1581.467529,299.703461 1581.149414,299.220581 
	C1582.109131,300.059814 1583.118652,300.848816 1584.021240,301.745483 
	C1610.492310,328.039948 1636.952515,354.345459 1663.415161,380.648560 
	C1673.568726,390.740753 1683.723877,400.831360 1693.998901,411.284058 
z"/>
<path fill="#7CD0B8" opacity="1.000000" stroke="none" 
	d="
M294.775543,1001.181519 
	C283.576599,990.409851 272.377655,979.638245 260.905182,968.603455 
	C251.065918,978.260010 241.426758,987.720154 231.118866,997.113525 
	C203.888794,970.935486 177.327438,944.824280 150.974472,918.917908 
	C161.018341,908.575195 170.607162,898.701050 180.489807,888.984375 
	C204.462112,912.172546 228.140594,935.203186 250.542282,956.991882 
	C262.846558,945.368774 274.774902,934.481506 286.262085,923.147156 
	C298.818909,910.757263 310.932343,897.918945 323.316528,885.352539 
	C326.913666,881.702515 330.776489,878.314453 334.863586,874.948853 
	C339.485077,879.164612 343.760468,883.237854 349.521515,888.726624 
	C350.866821,886.638245 351.766144,884.569458 353.241943,883.066772 
	C359.932129,876.254639 366.785004,869.602234 373.905701,862.903809 
	C376.982147,865.317383 379.861816,867.587402 382.462372,870.141663 
	C411.219452,898.386902 439.931702,926.677856 468.664673,954.947632 
	C469.789703,956.054565 471.001678,957.073120 472.173187,958.132874 
	C471.922089,957.588013 471.670959,957.043152 471.419861,956.498352 
	C487.886993,940.710815 504.349548,924.918518 520.826050,909.140808 
	C523.440125,906.637695 526.116516,904.199646 529.112427,901.853455 
	C534.614441,906.717896 539.768188,911.460388 544.921997,916.202820 
	C544.959839,916.598511 544.997681,916.994263 544.770020,917.808044 
	C538.279602,924.404419 531.992859,930.522095 525.849670,936.780579 
	C521.121521,941.597534 516.573914,946.591797 511.651611,951.692139 
	C510.913666,952.611450 510.470093,953.345703 510.026550,954.079956 
	C510.026581,954.079956 510.004425,954.013794 509.749268,954.048340 
	C509.338715,954.412476 509.183350,954.742126 509.027954,955.071777 
	C509.027954,955.071777 509.006897,955.006836 508.750885,955.045776 
	C508.339142,955.413757 508.183380,955.742798 508.027649,956.071838 
	C508.027679,956.071838 508.006805,956.006836 507.751282,956.046631 
	C507.340668,956.415344 507.185547,956.744141 507.030457,957.072998 
	C507.030457,957.072998 507.007507,957.007385 506.752502,957.047852 
	C506.341644,957.416626 506.185822,957.744873 506.029999,958.073120 
	C506.029999,958.073120 506.007446,958.007446 505.752991,958.048523 
	C505.341980,958.417419 505.185425,958.745178 505.028870,959.072937 
	C505.028839,959.072937 505.007324,959.007446 504.753387,959.049500 
	C504.342438,959.418640 504.185394,959.745728 504.028381,960.072815 
	C504.028381,960.072815 504.007996,960.007446 503.665649,960.160156 
	C503.213379,961.057312 503.103394,961.801819 502.993408,962.546265 
	C499.026398,966.601074 495.059357,970.655823 490.416748,974.719666 
	C489.164001,975.504150 488.586853,976.279602 488.009705,977.055054 
	C488.009735,977.055054 487.999817,977.000000 487.678345,976.898804 
	C479.640381,984.315979 471.951385,991.862854 464.195160,999.340027 
	C460.627197,1002.779724 456.927307,1006.082520 453.287231,1009.447327 
	C450.423431,1006.978455 447.430359,1004.642883 444.720703,1002.015076 
	C437.331055,994.848450 429.970428,987.646729 422.792297,980.270142 
	C420.253754,977.661438 418.551819,977.482056 415.949310,980.235352 
	C410.483521,986.018311 404.685669,991.487366 398.368225,997.019104 
	C386.278900,985.676270 374.810364,974.434937 363.428406,963.106628 
	C358.517059,958.218445 353.784515,953.150696 348.983948,947.802979 
	C350.222748,945.902283 351.315186,944.230408 352.695679,942.845581 
	C361.036682,934.478699 369.443512,926.177368 377.953278,917.729980 
	C368.610657,908.303650 359.664001,899.142944 350.462463,890.245911 
	C349.723236,889.531189 346.642059,890.022949 345.641510,890.985535 
	C337.237000,899.071655 329.093994,907.428711 320.799591,915.630676 
	C318.910492,917.498657 318.457550,919.060791 320.582184,921.057556 
	C326.399048,926.524475 332.236023,931.976440 337.872406,937.626465 
	C341.107391,940.869202 343.967712,944.485779 346.887756,948.253784 
	C329.444427,966.109497 312.109985,983.645508 294.775543,1001.181519 
z"/>
<path fill="#6EB5D3" opacity="1.000000" stroke="none" 
	d="
M1681.110596,675.277832 
	C1678.980347,677.767151 1676.597290,680.092896 1674.834351,682.819702 
	C1674.039917,684.048523 1673.708984,686.831177 1674.483643,687.625732 
	C1682.018311,695.353882 1689.831909,702.810059 1697.725342,710.612915 
	C1696.316162,712.008240 1694.549194,712.937439 1693.208130,714.289185 
	C1661.223389,746.528076 1629.282471,778.810486 1597.344482,811.095886 
	C1596.176025,812.276978 1595.118896,813.568176 1593.786743,815.057800 
	C1555.320312,777.085754 1517.142822,739.399109 1478.944702,701.691895 
	C1498.988525,681.340393 1518.745361,661.280396 1539.160645,641.130493 
	C1540.856201,641.848633 1541.984741,642.563416 1542.916626,643.478516 
	C1565.615479,665.764160 1588.293335,688.071045 1610.974609,710.374451 
	C1611.806030,711.192139 1612.507446,712.432861 1613.494141,712.729553 
	C1614.774780,713.114624 1616.854858,713.340210 1617.599854,712.615601 
	C1624.162964,706.231812 1630.476929,699.592712 1636.920532,693.084656 
	C1647.221802,682.680542 1657.565918,672.319031 1668.192871,662.100830 
	C1672.699341,666.600769 1676.905029,670.939270 1681.110596,675.277832 
z"/>
<path fill="#7CD0B8" opacity="1.000000" stroke="none" 
	d="
M196.560684,782.043091 
	C189.840591,775.660339 183.079346,769.320129 176.424622,762.869934 
	C174.316025,760.826172 172.491928,758.488892 170.168350,755.869507 
	C207.509720,718.223389 245.127426,680.298645 283.109894,642.006165 
	C284.361938,643.158813 285.708099,644.314697 286.960999,645.564026 
	C305.239685,663.790771 323.455475,682.080811 341.789581,700.251587 
	C359.166351,717.473572 376.602631,734.636902 394.168274,751.665588 
	C397.137207,754.543884 397.206970,756.239868 394.227051,759.192688 
	C375.655579,777.594604 357.273987,796.188110 338.306091,814.856689 
	C308.442261,786.245728 279.101837,757.496216 250.818665,729.782654 
	C232.488358,747.438171 214.524536,764.740662 196.560684,782.043091 
z"/>
<path fill="#15CFFB" opacity="1.000000" stroke="none" 
	d="
M196.352875,782.339111 
	C214.524536,764.740662 232.488358,747.438171 250.818665,729.782654 
	C279.101837,757.496216 308.442261,786.245728 338.055054,815.133362 
	C344.154114,821.077576 349.942108,826.923279 355.828918,832.667664 
	C357.811066,834.601868 360.044220,836.278809 363.008148,838.789490 
	C364.869049,836.625916 367.344696,833.747498 370.266846,830.415894 
	C372.548187,827.668884 374.383057,825.375122 376.217926,823.081421 
	C390.521027,808.912354 404.958252,794.875549 419.092468,780.540039 
	C435.998077,763.393677 452.644653,745.991882 469.560455,728.538635 
	C479.520508,738.090332 488.973419,747.155640 498.741821,756.576050 
	C499.243256,757.116150 499.429230,757.301086 499.615234,757.486023 
	C499.725677,757.121704 499.836060,756.757446 499.946472,756.393127 
	C500.287201,756.255798 500.555817,756.342346 500.822418,757.215698 
	C501.784729,758.939331 502.554108,760.224609 503.587006,761.242615 
	C529.964844,787.239685 556.367249,813.211914 582.785095,839.168274 
	C583.595581,839.964600 584.617249,840.545898 585.540405,841.227478 
	C584.756226,842.556030 584.199768,844.106384 583.153870,845.179993 
	C566.211182,862.570557 549.206238,879.900574 531.777466,897.686951 
	C530.481079,899.330200 529.622559,900.530884 528.764099,901.731506 
	C526.116516,904.199646 523.440125,906.637695 520.826050,909.140808 
	C504.349548,924.918518 487.886993,940.710815 471.419861,956.498352 
	C471.670959,957.043152 471.922089,957.588013 472.173187,958.132874 
	C471.001678,957.073120 469.789703,956.054565 468.664673,954.947632 
	C439.931702,926.677856 411.219452,898.386902 382.462372,870.141663 
	C379.861816,867.587402 376.982147,865.317383 373.868439,862.539307 
	C369.615479,858.140930 365.811005,854.028992 361.752106,850.185669 
	C361.087585,849.556396 358.746185,849.563782 358.119568,850.200928 
	C350.152283,858.304443 342.356750,866.576904 334.517517,874.806335 
	C330.776489,878.314453 326.913666,881.702515 323.316528,885.352539 
	C310.932343,897.918945 298.818909,910.757263 286.262085,923.147156 
	C274.774902,934.481506 262.846558,945.368774 250.542282,956.991882 
	C228.140594,935.203186 204.462112,912.172546 180.359344,888.681030 
	C175.248520,883.528442 170.626099,878.770508 165.862030,874.158936 
	C155.986725,864.599670 146.036179,855.118225 136.116577,845.604797 
	C137.142868,844.165955 138.013077,842.578308 139.220276,841.311951 
	C148.464890,831.614319 157.775101,821.979126 167.158264,812.038574 
	C168.108231,811.130127 168.964890,810.507629 170.263275,809.435364 
	C172.214249,807.353271 173.723480,805.720947 175.232712,804.088623 
	C182.203476,796.937439 189.174255,789.786255 196.352875,782.339111 
M333.857971,818.587524 
	C327.783386,812.680969 321.685211,806.798462 315.638519,800.863464 
	C294.633209,780.246094 273.648132,759.608093 252.642075,738.991455 
	C251.847366,738.211548 250.914597,737.572327 249.985779,736.818481 
	C249.243469,737.397095 248.679565,737.742249 248.230759,738.200195 
	C233.216461,753.519043 218.207138,768.842712 203.227798,784.195740 
	C202.561417,784.878723 202.181610,785.841309 201.040070,786.869446 
	C199.798416,787.947388 198.475449,788.945557 197.327438,790.115417 
	C182.661713,805.060608 168.060516,820.069458 153.341873,834.962280 
	C150.247574,838.093201 146.745148,840.820801 143.068848,844.052368 
	C157.774048,858.158569 171.306000,871.139282 185.143066,884.717957 
	C207.394943,906.616760 229.646835,928.515625 251.912781,950.428284 
	C252.971619,949.556030 253.523178,949.179138 253.982941,948.711914 
	C278.847290,923.443298 303.707031,898.170166 328.544739,872.875427 
	C329.219025,872.188721 329.646698,871.259888 330.811676,870.169861 
	C340.090607,861.199158 349.369537,852.228455 359.029480,842.889404 
	C350.166809,834.469971 342.147400,826.851562 333.857971,818.587524 
M378.997742,858.512390 
	C406.728119,885.861206 434.443665,913.225159 462.207977,940.539490 
	C465.601715,943.878174 469.257172,946.950867 473.221130,950.535522 
	C482.401550,940.899536 491.328094,931.529968 500.795013,921.805786 
	C508.881714,913.549622 516.968445,905.293396 525.636719,896.719604 
	C542.408997,879.643250 559.127441,862.513184 576.009338,845.545898 
	C578.667725,842.874084 577.977417,841.364807 575.659668,839.120728 
	C561.448914,825.362061 547.380920,811.455994 533.193604,797.672974 
	C521.164124,785.986267 509.037689,774.399414 496.698669,762.193542 
	C488.267303,753.491455 479.835907,744.789429 471.099823,735.772827 
	C435.108337,772.512146 399.901215,808.450806 364.363037,844.727356 
	C369.441315,849.380127 374.073395,853.624146 378.997742,858.512390 
z"/>
<path fill="#7DD0B9" opacity="1.000000" stroke="none" 
	d="
M87.076859,704.800476 
	C77.473068,695.427429 67.973969,685.943176 58.206978,676.743408 
	C54.926361,673.653320 54.489391,671.518433 58.106113,668.389404 
	C62.493114,664.594055 66.433289,660.282227 71.229843,656.091858 
	C72.814003,656.672119 73.831223,657.256409 74.642136,658.051147 
	C94.384300,677.399963 114.103348,696.772339 133.832550,716.134338 
	C134.726425,717.011536 135.677078,717.830994 136.680481,718.749817 
	C157.352325,697.699646 177.758316,676.906616 198.194107,656.142944 
	C199.459961,654.856750 200.960541,653.801514 202.351929,652.638855 
	C209.282272,659.230164 216.212601,665.821533 222.437973,671.742432 
	C196.367935,698.209534 170.789032,724.178040 144.764435,750.606628 
	C142.789062,752.676514 141.259384,754.286255 139.729706,755.895996 
	C137.552368,754.167419 135.193634,752.622192 133.229156,750.678528 
	C124.712204,742.251587 116.310364,733.708374 107.401474,724.755249 
	C100.316467,717.802185 93.696663,711.301331 87.076859,704.800476 
z"/>
<path fill="#6EB6D3" opacity="1.000000" stroke="none" 
	d="
M1729.531250,252.836899 
	C1736.066040,258.938843 1742.600708,265.040863 1749.650391,271.623718 
	C1721.737915,299.921448 1694.203735,327.835632 1666.263306,356.161774 
	C1664.790405,354.783295 1663.478882,353.619598 1662.237793,352.384949 
	C1637.442139,327.718079 1612.656372,303.041321 1587.864258,278.370880 
	C1581.554321,272.092041 1581.539185,272.090424 1587.941040,265.685303 
	C1591.118896,262.506012 1594.334229,259.364197 1598.196411,256.109375 
	C1599.899048,256.810730 1601.033447,257.510437 1601.962524,258.419891 
	C1619.891113,275.970398 1637.802124,293.538940 1655.698486,311.122406 
	C1658.276123,313.655121 1660.759155,316.284119 1663.822388,319.417084 
	C1665.211792,317.707397 1666.160767,316.328522 1667.314941,315.150696 
	C1686.620239,295.450287 1705.941162,275.765289 1725.299316,256.116943 
	C1726.540771,254.856888 1728.112915,253.922699 1729.531250,252.836899 
z"/>
<path fill="#11B6FD" opacity="1.000000" stroke="none" 
	d="
M1729.588257,252.478683 
	C1728.112915,253.922699 1726.540771,254.856888 1725.299316,256.116943 
	C1705.941162,275.765289 1686.620239,295.450287 1667.314941,315.150696 
	C1666.160767,316.328522 1665.211792,317.707397 1663.822388,319.417084 
	C1660.759155,316.284119 1658.276123,313.655121 1655.698486,311.122406 
	C1637.802124,293.538940 1619.891113,275.970398 1601.962524,258.419891 
	C1601.033447,257.510437 1599.899048,256.810730 1598.524048,256.007538 
	C1595.556396,253.245758 1592.971069,250.444138 1590.285645,247.741776 
	C1578.321289,235.701233 1566.358032,223.659164 1554.319336,211.693130 
	C1552.023682,209.411469 1549.388794,207.471054 1546.741577,205.230270 
	C1584.872070,166.301437 1622.693237,127.688385 1661.022095,88.556969 
	C1699.804810,126.558434 1738.510620,164.484451 1777.421387,202.611359 
	C1764.854370,215.464920 1752.396729,228.160004 1740.000610,240.914993 
	C1736.457153,244.561005 1733.092041,248.380463 1729.588257,252.478683 
M1604.005005,251.865646 
	C1606.603638,254.409698 1609.216919,256.939026 1611.798706,259.500183 
	C1625.984131,273.572113 1640.134033,287.680115 1654.364502,301.706360 
	C1657.400146,304.698547 1660.718506,307.403961 1664.243530,310.541321 
	C1668.977539,305.740265 1673.431274,301.280701 1677.822266,296.760040 
	C1693.583008,280.533234 1709.322632,264.285797 1725.693604,247.804810 
	C1740.434692,232.807281 1755.175659,217.809738 1770.010498,202.716782 
	C1733.610229,167.038147 1697.752075,131.890900 1661.798096,96.649765 
	C1626.274658,132.920105 1591.146729,168.786499 1557.109741,203.539169 
	C1570.217163,217.305527 1582.914673,230.717377 1595.719971,244.025528 
	C1598.222900,246.626801 1601.143921,248.825699 1604.005005,251.865646 
z"/>
<path fill="#11B6FD" opacity="1.000000" stroke="none" 
	d="
M1667.891968,661.939453 
	C1657.565918,672.319031 1647.221802,682.680542 1636.920532,693.084656 
	C1630.476929,699.592712 1624.162964,706.231812 1617.599854,712.615601 
	C1616.854858,713.340210 1614.774780,713.114624 1613.494141,712.729553 
	C1612.507446,712.432861 1611.806030,711.192139 1610.974609,710.374451 
	C1588.293335,688.071045 1565.615479,665.764160 1542.916626,643.478516 
	C1541.984741,642.563416 1540.856201,641.848633 1539.483398,641.020264 
	C1526.152344,627.403870 1513.157104,613.807617 1499.575317,599.597839 
	C1503.597778,595.667908 1508.753784,590.791138 1513.731323,585.738647 
	C1531.091919,568.116455 1548.399536,550.441956 1565.706055,532.766418 
	C1569.274902,529.121338 1572.752197,525.386536 1576.371704,521.336182 
	C1577.656738,520.176025 1578.984009,519.521851 1580.004883,518.546997 
	C1591.252319,507.808197 1602.452271,497.019714 1614.031372,485.892853 
	C1614.711182,486.412262 1616.494873,487.775330 1618.676270,489.497528 
	C1619.997192,491.000610 1620.816528,492.250671 1621.859009,493.272980 
	C1648.613892,519.507629 1675.461670,545.647827 1702.126831,571.973206 
	C1711.096802,580.828735 1719.612793,590.144226 1729.799438,600.776611 
	C1720.146606,609.772095 1709.696411,619.060486 1699.771606,628.879944 
	C1688.892212,639.644226 1678.497803,650.898682 1667.891968,661.939453 
M1663.841309,657.406433 
	C1671.741333,649.567932 1679.711792,641.799011 1687.524658,633.874573 
	C1698.959351,622.276428 1710.281006,610.566650 1721.871948,598.677612 
	C1686.405762,563.866821 1651.177246,529.289368 1615.653442,494.174652 
	C1613.221680,491.810455 1612.133423,494.368042 1610.886108,495.610046 
	C1603.328735,503.135498 1595.806885,510.697876 1588.359497,518.332275 
	C1586.064941,520.684631 1584.040771,523.300842 1581.253662,526.035400 
	C1556.763184,550.922729 1532.272705,575.809998 1508.992920,599.466919 
	C1520.391357,611.551941 1531.352417,623.193115 1542.358398,634.791870 
	C1543.003174,635.471558 1544.011719,635.806152 1544.967407,636.948120 
	C1551.103760,642.995972 1557.254761,649.029114 1563.373779,655.094482 
	C1578.719727,670.306152 1594.036621,685.547302 1609.406738,700.734497 
	C1611.381592,702.685974 1613.602295,704.388672 1615.819092,706.301575 
	C1616.769653,705.566956 1617.468750,705.140259 1618.029785,704.576111 
	C1629.515747,693.026184 1641.050293,681.523315 1652.423462,669.863098 
	C1656.212036,665.979004 1659.579468,661.684204 1663.841309,657.406433 
z"/>
<path fill="#17D0FD" opacity="1.000000" stroke="none" 
	d="
M202.467102,652.312195 
	C200.960541,653.801514 199.459961,654.856750 198.194107,656.142944 
	C177.758316,676.906616 157.352325,697.699646 136.680481,718.749817 
	C135.677078,717.830994 134.726425,717.011536 133.832550,716.134338 
	C114.103348,696.772339 94.384300,677.399963 74.642136,658.051147 
	C73.831223,657.256409 72.814003,656.672119 71.557220,655.981262 
	C67.276726,651.927917 63.360630,647.854553 59.381489,643.843750 
	C48.825340,633.203796 38.277122,622.555359 27.641788,611.994873 
	C25.315565,609.684998 22.640047,607.726807 19.709747,605.256287 
	C57.828426,566.370544 95.770882,527.664551 133.941925,488.725342 
	C172.803238,526.775208 211.438049,564.603271 251.242004,603.576050 
	C239.434372,614.926208 227.846756,625.906860 216.456329,637.088379 
	C211.618729,641.837219 207.194443,647.007080 202.467102,652.312195 
M76.950890,651.898926 
	C77.463539,652.549438 77.911949,653.265381 78.498146,653.840942 
	C95.968964,670.995422 113.440437,688.149353 130.954926,705.259155 
	C132.819305,707.080444 134.947983,708.631226 137.699615,710.930420 
	C140.590546,707.706482 143.152237,704.650269 145.920731,701.794617 
	C163.304291,683.863586 180.733887,665.977234 198.750092,647.799316 
	C213.439941,632.858704 228.129776,617.918091 243.062057,602.730835 
	C206.779739,567.161377 170.839828,531.927551 134.808044,496.603699 
	C99.205971,532.960388 64.067764,568.843384 29.570530,604.071838 
	C37.924358,612.831970 45.810127,621.396790 54.027512,629.630676 
	C61.410931,637.028931 69.158531,644.063782 76.950890,651.898926 
z"/>
<path fill="#7DD0B9" opacity="1.000000" stroke="none" 
	d="
M585.660095,840.886292 
	C584.617249,840.545898 583.595581,839.964600 582.785095,839.168274 
	C556.367249,813.211914 529.964844,787.239685 503.587006,761.242615 
	C502.554108,760.224609 501.784729,758.939331 500.913300,757.426514 
	C502.289124,757.885925 503.872528,758.465698 504.965790,759.542908 
	C530.888611,785.086975 556.766724,810.676331 582.613525,836.297363 
	C583.853760,837.526794 584.732605,839.120850 585.660095,840.886292 
z"/>
<path fill="#D1F5F4" opacity="1.000000" stroke="none" 
	d="
M511.946014,951.507141 
	C516.573914,946.591797 521.121521,941.597534 525.849670,936.780579 
	C531.992859,930.522095 538.279602,924.404419 544.827454,918.100769 
	C545.150391,917.975403 545.598999,917.966797 545.821045,917.998535 
	C545.234680,919.246155 544.596985,920.630066 543.591614,921.652222 
	C533.326538,932.088135 523.001648,942.465210 512.347778,952.594727 
	C511.983398,952.056152 511.964691,951.781616 511.946014,951.507141 
z"/>
<path fill="#FEFFFF" opacity="1.000000" stroke="none" 
	d="
M87.055893,705.182678 
	C93.696663,711.301331 100.316467,717.802185 107.119225,724.593933 
	C100.781776,723.766174 97.375198,718.305664 93.046967,714.291992 
	C90.519096,711.947876 89.005081,708.510437 87.055893,705.182678 
z"/>
<path fill="#FEFFFF" opacity="1.000000" stroke="none" 
	d="
M529.112427,901.853455 
	C529.622559,900.530884 530.481079,899.330200 531.639099,897.986206 
	C535.183289,901.619507 538.553528,905.297913 541.616760,909.216370 
	C543.041626,911.038818 543.870483,913.327332 544.945740,915.803711 
	C539.768188,911.460388 534.614441,906.717896 529.112427,901.853455 
z"/>
<path fill="#FEFFFF" opacity="1.000000" stroke="none" 
	d="
M70.931091,714.851929 
	C66.001823,710.435120 61.097561,705.626282 56.030804,700.537476 
	C56.531681,699.994812 57.495213,699.307434 57.813820,699.532654 
	C63.367901,703.457947 68.633057,707.678284 70.931091,714.851929 
z"/>
<path fill="#FEFFFF" opacity="1.000000" stroke="none" 
	d="
M375.827576,823.061401 
	C374.383057,825.375122 372.548187,827.668884 370.409882,830.122803 
	C369.670593,826.240234 371.187897,823.635254 375.827576,823.061401 
z"/>
<path fill="#FEFFFF" opacity="1.000000" stroke="none" 
	d="
M174.837067,804.066772 
	C173.723480,805.720947 172.214249,807.353271 170.410309,809.148132 
	C169.815918,806.124695 171.079239,804.222656 174.837067,804.066772 
z"/>
<path fill="#FEFFFF" opacity="1.000000" stroke="none" 
	d="
M140.129822,755.924561 
	C141.259384,754.286255 142.789062,752.676514 144.604355,750.890137 
	C145.182068,753.912415 143.893646,755.796265 140.129822,755.924561 
z"/>
<path fill="#FEFFFF" opacity="1.000000" stroke="none" 
	d="
M74.935272,718.853699 
	C73.999641,718.407288 73.088173,717.584412 72.030670,716.493713 
	C74.207359,715.035767 74.389404,715.169067 74.935272,718.853699 
z"/>
<path fill="#7DD0B9" opacity="1.000000" stroke="none" 
	d="
M499.721191,756.351807 
	C499.836060,756.757446 499.725677,757.121704 499.615234,757.486023 
	C499.429230,757.301086 499.243256,757.116150 499.072571,756.724854 
	C499.087830,756.518433 499.495941,756.310486 499.721191,756.351807 
z"/>
<path fill="#FDFFFF" opacity="1.000000" stroke="none" 
	d="
M1668.192871,662.100830 
	C1678.497803,650.898682 1688.892212,639.644226 1699.771606,628.879944 
	C1709.696411,619.060486 1720.146606,609.772095 1729.799438,600.776611 
	C1719.612793,590.144226 1711.096802,580.828735 1702.126831,571.973206 
	C1675.461670,545.647827 1648.613892,519.507629 1621.859009,493.272980 
	C1620.816528,492.250671 1619.997192,491.000610 1619.031250,489.531921 
	C1622.121094,486.298828 1625.346069,483.483063 1628.369629,480.465607 
	C1639.804932,469.053528 1651.174927,457.576050 1662.825684,445.879639 
	C1673.134155,455.268585 1683.218018,464.868073 1693.224243,474.547882 
	C1697.873413,479.045349 1702.371948,483.698761 1707.046875,488.600952 
	C1697.626953,498.831299 1688.098877,508.742096 1678.402100,518.828369 
	C1678.799683,519.276733 1679.509888,520.171021 1680.313965,520.970886 
	C1705.079346,545.605469 1729.851318,570.233215 1754.636719,594.847717 
	C1755.452881,595.658203 1756.416870,596.320129 1757.657593,597.118042 
	C1757.189697,598.384338 1756.538818,599.744141 1755.538696,600.760132 
	C1731.621826,625.051392 1707.669067,649.307190 1683.710327,673.557068 
	C1683.135132,674.139282 1682.416382,674.579590 1681.437500,675.182007 
	C1676.905029,670.939270 1672.699341,666.600769 1668.192871,662.100830 
z"/>
<path fill="#7CD0B8" opacity="1.000000" stroke="none" 
	d="
M536.978149,1026.590576 
	C527.857666,1036.344604 518.560547,1045.810303 509.273010,1055.285400 
	C507.880554,1056.706055 506.533417,1058.170898 504.985809,1059.929199 
	C494.186035,1049.880615 483.565765,1039.518188 473.010895,1028.486816 
	C483.796326,1017.115601 494.516388,1006.413452 505.236420,995.711304 
	C509.804382,999.959045 514.451477,1004.125366 518.920898,1008.474365 
	C524.953613,1014.344482 530.849792,1020.354919 536.978149,1026.590576 
z"/>
<path fill="#FDFFFF" opacity="1.000000" stroke="none" 
	d="
M505.120941,995.408936 
	C494.516388,1006.413452 483.796326,1017.115601 472.937012,1028.171143 
	C466.348846,1022.342041 459.899963,1016.159546 453.369141,1009.712158 
	C456.927307,1006.082520 460.627197,1002.779724 464.195160,999.340027 
	C471.951385,991.862854 479.640381,984.315979 487.704956,976.907471 
	C490.372314,979.633118 492.629547,982.307373 495.025970,984.850403 
	C498.296967,988.321472 501.673920,991.692566 505.120941,995.408936 
z"/>
<path fill="#FDFFFF" opacity="1.000000" stroke="none" 
	d="
M511.651611,951.692139 
	C511.964691,951.781616 511.983398,952.056152 512.044617,952.741211 
	C511.578278,953.622070 511.069427,954.092346 510.293579,954.321289 
	C510.470093,953.345703 510.913666,952.611450 511.651611,951.692139 
z"/>
<path fill="#FDFFFF" opacity="1.000000" stroke="none" 
	d="
M488.331177,976.961670 
	C488.586853,976.279602 489.164001,975.504150 490.144104,974.867554 
	C489.915619,975.627014 489.284149,976.247620 488.331177,976.961670 
z"/>
<path fill="#FDFFFF" opacity="1.000000" stroke="none" 
	d="
M503.289978,962.283264 
	C503.103394,961.801819 503.213379,961.057312 503.699890,960.161011 
	C503.913116,960.679565 503.749847,961.349915 503.289978,962.283264 
z"/>
<path fill="#FDFFFF" opacity="1.000000" stroke="none" 
	d="
M504.397827,960.195557 
	C504.185394,959.745728 504.342438,959.418640 504.786163,959.060181 
	C504.971008,959.458618 504.869141,959.888489 504.397827,960.195557 
z"/>
<path fill="#FDFFFF" opacity="1.000000" stroke="none" 
	d="
M505.399963,959.197937 
	C505.185425,958.745178 505.341980,958.417419 505.785828,958.059753 
	C505.972443,958.460938 505.871765,958.891907 505.399963,959.197937 
z"/>
<path fill="#FDFFFF" opacity="1.000000" stroke="none" 
	d="
M506.401367,958.200989 
	C506.185822,957.744873 506.341644,957.416626 506.785309,957.059326 
	C506.973022,957.463135 506.872894,957.895996 506.401367,958.200989 
z"/>
<path fill="#FDFFFF" opacity="1.000000" stroke="none" 
	d="
M507.394928,957.197327 
	C507.185547,956.744141 507.340668,956.415344 507.783813,956.057007 
	C507.967682,956.458923 507.863556,956.890320 507.394928,957.197327 
z"/>
<path fill="#FDFFFF" opacity="1.000000" stroke="none" 
	d="
M508.390808,956.181519 
	C508.183380,955.742798 508.339142,955.413757 508.783325,955.056274 
	C508.965881,955.448975 508.859955,955.870056 508.390808,956.181519 
z"/>
<path fill="#FDFFFF" opacity="1.000000" stroke="none" 
	d="
M509.393738,955.181885 
	C509.183350,954.742126 509.338715,954.412476 509.783203,954.056335 
	C509.968018,954.450562 509.863770,954.871216 509.393738,955.181885 
z"/>
<path fill="#FDFFFF" opacity="1.000000" stroke="none" 
	d="
M135.855469,845.849243 
	C146.036179,855.118225 155.986725,864.599670 165.862030,874.158936 
	C170.626099,878.770508 175.248520,883.528442 180.065536,888.523560 
	C170.607162,898.701050 161.018341,908.575195 150.974472,918.917908 
	C177.327438,944.824280 203.888794,970.935486 230.781586,997.205383 
	C227.321976,1001.488647 223.645996,1005.726318 219.720703,1009.718811 
	C199.005188,1030.788940 178.228973,1051.799438 157.462112,1072.818848 
	C156.652740,1073.638062 155.723495,1074.338745 154.542709,1075.218018 
	C149.976151,1070.969482 145.716995,1066.597534 141.160309,1062.045288 
	C153.003113,1049.289185 164.996750,1036.567139 177.334976,1024.188599 
	C185.670120,1015.826294 194.490875,1007.948059 203.327301,999.634155 
	C165.474045,962.497620 128.866867,926.583618 92.115524,890.374146 
	C106.512367,875.416992 121.053360,860.755310 135.855469,845.849243 
z"/>
<path fill="#7DD0B9" opacity="1.000000" stroke="none" 
	d="
M54.983356,926.002563 
	C59.542046,920.680786 64.243942,915.541626 69.072273,910.524048 
	C74.037376,905.364380 79.044365,900.237671 84.233879,895.307983 
	C85.190842,894.398804 87.104645,894.496826 88.725471,894.382385 
	C87.431725,895.683655 85.822189,896.564758 84.573700,897.808289 
	C75.506187,906.839600 66.521820,915.954285 57.469959,925.001404 
	C56.882290,925.588806 55.952656,925.834045 54.983356,926.002563 
z"/>
<path fill="#FEFFFF" opacity="1.000000" stroke="none" 
	d="
M294.929535,1001.477661 
	C312.109985,983.645508 329.444427,966.109497 347.219666,948.262817 
	C348.097229,948.022888 348.533997,948.093689 348.970734,948.164490 
	C353.784515,953.150696 358.517059,958.218445 363.428406,963.106628 
	C374.810364,974.434937 386.278900,985.676270 398.050812,997.115906 
	C397.024231,998.926270 395.766846,1000.678650 394.277496,1002.204590 
	C379.498199,1017.347290 364.665344,1032.437622 349.901154,1047.594971 
	C348.635712,1048.894043 347.754852,1050.567871 346.314514,1052.606689 
	C328.579407,1035.009399 311.831482,1018.391602 294.929535,1001.477661 
z"/>
<path fill="#7CD0B8" opacity="1.000000" stroke="none" 
	d="
M449.057404,1013.658325 
	C443.733826,1019.694275 438.248871,1025.424927 432.032562,1031.919800 
	C422.218658,1021.941956 412.726807,1012.291504 403.058624,1002.355835 
	C408.345612,996.317810 413.808929,990.565002 419.737244,984.322571 
	C429.684723,994.226318 439.290375,1003.789734 449.057404,1013.658325 
z"/>
<path fill="#3E91BA" opacity="1.000000" stroke="none" 
	d="
M1875.974854,547.837769 
	C1875.526855,548.125061 1875.094116,548.048218 1874.331543,547.965271 
	C1871.340820,544.867737 1868.860352,541.595581 1865.981567,538.722351 
	C1859.996094,532.748230 1853.698486,527.084045 1847.798828,521.029663 
	C1846.909424,520.117004 1846.697754,517.040833 1847.481201,516.230408 
	C1856.588135,506.809174 1865.946655,497.631165 1875.621826,488.007324 
	C1884.779541,497.197021 1893.772339,506.243652 1902.795288,515.260315 
	C1905.117432,517.580933 1903.404175,519.059509 1901.830688,520.634155 
	C1894.313232,528.156677 1886.780029,535.663757 1879.310181,543.233521 
	C1878.057739,544.502930 1877.089722,546.053162 1875.974854,547.837769 
z"/>
<path fill="#FEFFFF" opacity="1.000000" stroke="none" 
	d="
M1861.920410,475.019897 
	C1866.509399,469.575470 1871.416138,464.220520 1876.391602,458.930084 
	C1879.676758,455.436981 1883.060303,452.036438 1886.931885,448.045898 
	C1891.647827,452.972565 1896.066772,457.588989 1900.523315,462.573120 
	C1894.997681,468.388824 1889.355469,473.759369 1883.905151,479.317871 
	C1881.239258,482.036530 1878.930420,485.105011 1876.166870,488.360626 
	C1870.865723,483.317108 1866.566528,479.226929 1861.920410,475.019897 
z"/>
<path fill="#6DB5D3" opacity="1.000000" stroke="none" 
	d="
M1857.094116,470.391602 
	C1856.350952,471.457916 1855.742798,472.656952 1854.844849,473.571228 
	C1830.598022,498.259064 1806.322632,522.918823 1782.045166,547.576416 
	C1781.235718,548.398621 1780.354248,549.150024 1778.981201,550.420288 
	C1756.670898,528.460205 1734.435547,506.573883 1712.206299,484.073120 
	C1728.560425,466.954590 1744.896851,450.439117 1761.270630,433.960754 
	C1763.355591,431.862488 1765.635742,429.958191 1768.188477,427.977600 
	C1769.974487,429.093323 1771.531494,430.060394 1772.799194,431.318909 
	C1784.382080,442.817139 1796.043579,454.241516 1807.381836,465.977600 
	C1810.695679,469.407806 1812.628052,469.093018 1815.744385,465.855316 
	C1821.719971,459.646790 1828.144043,453.869965 1834.676270,448.045898 
	C1842.345093,455.582397 1849.719604,462.987000 1857.094116,470.391602 
z"/>
<path fill="#6DB5D3" opacity="1.000000" stroke="none" 
	d="
M1728.837891,386.779419 
	C1729.295654,385.927002 1729.586426,384.911957 1730.235596,384.246063 
	C1745.204346,368.888580 1760.210327,353.567535 1775.220581,338.250549 
	C1775.669312,337.792572 1776.237427,337.451538 1776.981323,336.877502 
	C1777.908813,337.627777 1778.843872,338.264465 1779.638306,339.044403 
	C1800.638062,359.660919 1821.615845,380.299805 1842.615845,400.916046 
	C1848.658447,406.848358 1854.758057,412.722687 1860.789551,419.231812 
	C1851.932373,428.585938 1843.116821,437.331818 1833.961182,445.966431 
	C1820.476440,433.116272 1807.261230,420.448761 1794.244385,407.580780 
	C1791.509766,404.877411 1789.764771,404.559998 1786.961304,407.470764 
	C1780.849487,413.816559 1774.396729,419.834137 1767.770142,425.862610 
	C1758.452393,416.844543 1749.407104,407.990326 1740.461792,399.036407 
	C1736.483398,395.054321 1732.706299,390.871277 1728.837891,386.779419 
z"/>
<path fill="#FDFFFF" opacity="1.000000" stroke="none" 
	d="
M1728.501099,386.837616 
	C1732.706299,390.871277 1736.483398,395.054321 1740.461792,399.036407 
	C1749.407104,407.990326 1758.452393,416.844543 1767.762573,426.196136 
	C1767.987305,427.089935 1767.906372,427.526978 1767.825439,427.964050 
	C1765.635742,429.958191 1763.355591,431.862488 1761.270630,433.960754 
	C1744.896851,450.439117 1728.560425,466.954590 1712.067871,483.769592 
	C1703.858398,476.402740 1695.689453,468.830383 1687.764526,461.010773 
	C1682.318726,455.637177 1677.211792,449.920197 1671.079712,443.432220 
	C1672.380249,442.373962 1674.431030,441.001709 1676.126587,439.279816 
	C1692.249634,422.904968 1708.305420,406.463867 1724.407349,390.068329 
	C1725.550903,388.903900 1726.906982,387.948425 1728.501099,386.837616 
z"/>
<path fill="#FDFFFF" opacity="1.000000" stroke="none" 
	d="
M1834.301270,446.077698 
	C1843.116821,437.331818 1851.932373,428.585938 1860.907715,419.561401 
	C1869.112549,426.884369 1877.157227,434.486023 1885.912476,442.759094 
	C1876.266235,452.143860 1867.007202,461.151978 1857.421143,470.275818 
	C1849.719604,462.987000 1842.345093,455.582397 1834.623169,447.742249 
	C1834.284302,446.897034 1834.292725,446.487335 1834.301270,446.077698 
z"/>
<path fill="#4CB694" opacity="1.000000" stroke="none" 
	d="
M348.983948,947.802979 
	C348.533997,948.093689 348.097229,948.022888 347.328583,947.943115 
	C343.967712,944.485779 341.107391,940.869202 337.872406,937.626465 
	C332.236023,931.976440 326.399048,926.524475 320.582184,921.057556 
	C318.457550,919.060791 318.910492,917.498657 320.799591,915.630676 
	C329.093994,907.428711 337.237000,899.071655 345.641510,890.985535 
	C346.642059,890.022949 349.723236,889.531189 350.462463,890.245911 
	C359.664001,899.142944 368.610657,908.303650 377.953278,917.729980 
	C369.443512,926.177368 361.036682,934.478699 352.695679,942.845581 
	C351.315186,944.230408 350.222748,945.902283 348.983948,947.802979 
z"/>
<path fill="#FEFFFF" opacity="1.000000" stroke="none" 
	d="
M334.863617,874.948853 
	C342.356750,866.576904 350.152283,858.304443 358.119568,850.200928 
	C358.746185,849.563782 361.087585,849.556396 361.752106,850.185669 
	C365.811005,854.028992 369.615479,858.140930 373.542053,862.527893 
	C366.785004,869.602234 359.932129,876.254639 353.241943,883.066772 
	C351.766144,884.569458 350.866821,886.638245 349.521515,888.726624 
	C343.760468,883.237854 339.485077,879.164612 334.863617,874.948853 
z"/>
<path fill="#7CD0B8" opacity="1.000000" stroke="none" 
	d="
M496.954163,762.768311 
	C509.037689,774.399414 521.164124,785.986267 533.193604,797.672974 
	C547.380920,811.455994 561.448914,825.362061 575.659668,839.120728 
	C577.977417,841.364807 578.667725,842.874084 576.009338,845.545898 
	C559.127441,862.513184 542.408997,879.643250 525.178528,896.583496 
	C521.321289,893.281799 517.828247,890.210632 514.538513,886.935364 
	C494.123688,866.610046 473.754486,846.238953 453.370087,825.883118 
	C443.508148,816.034973 443.507599,816.034241 433.502991,826.052124 
	C428.618500,830.943054 423.736633,835.836670 418.875549,840.707031 
	C421.027252,842.741089 422.628906,844.185425 424.153473,845.706970 
	C448.197205,869.703735 472.235016,893.706482 496.257324,917.724670 
	C497.662964,919.130005 498.925507,920.678528 500.254639,922.160461 
	C491.328094,931.529968 482.401550,940.899536 473.221130,950.535522 
	C469.257172,946.950867 465.601715,943.878174 462.207977,940.539490 
	C434.443665,913.225159 406.728119,885.861206 378.965485,857.863342 
	C379.435791,856.557251 379.872375,855.834778 380.450439,855.252747 
	C396.645660,838.946167 412.851379,822.650024 429.076019,806.372803 
	C429.748322,805.698181 430.619324,805.221619 431.397797,804.652771 
	C431.884033,804.269958 432.370300,803.887146 432.856537,803.504272 
	C436.175568,807.824951 439.494598,812.145630 443.038544,816.759033 
	C446.351318,813.354309 448.636353,810.946045 450.985168,808.601685 
	C466.300446,793.316162 481.629578,778.044495 496.954163,762.768311 
z"/>
<path fill="#7CD0B8" opacity="1.000000" stroke="none" 
	d="
M330.189331,870.443970 
	C329.646698,871.259888 329.219025,872.188721 328.544739,872.875427 
	C303.707031,898.170166 278.847290,923.443298 253.982941,948.711914 
	C253.523178,949.179138 252.971619,949.556030 251.912781,950.428284 
	C229.646835,928.515625 207.394943,906.616760 185.158661,884.112183 
	C201.777542,866.754883 218.370636,849.993164 234.998520,833.265991 
	C236.851791,831.401672 238.902206,829.733398 241.221741,827.985962 
	C243.001297,829.103271 244.551575,830.076599 245.818848,831.334900 
	C257.508636,842.941772 269.242126,854.507629 280.741028,866.301697 
	C283.703094,869.339783 285.519653,869.127686 288.362762,866.214661 
	C294.495575,859.930847 300.989471,853.999390 307.631439,848.056274 
	C315.347931,855.607178 322.768646,863.025574 330.189331,870.443970 
z"/>
<path fill="#7CD0B8" opacity="1.000000" stroke="none" 
	d="
M201.668304,786.673645 
	C202.181610,785.841309 202.561417,784.878723 203.227798,784.195740 
	C218.207138,768.842712 233.216461,753.519043 248.230759,738.200195 
	C248.679565,737.742249 249.243469,737.397095 249.985779,736.818481 
	C250.914597,737.572327 251.847366,738.211548 252.642075,738.991455 
	C273.648132,759.608093 294.633209,780.246094 315.638519,800.863464 
	C321.685211,806.798462 327.783386,812.680969 333.817749,819.187073 
	C324.940369,828.546387 316.103210,837.306091 306.928955,845.953308 
	C293.574341,833.225037 280.461945,820.704773 267.608948,807.923584 
	C264.565460,804.897095 262.701935,804.527100 259.598938,807.812195 
	C253.668884,814.090454 247.292908,819.947571 240.787781,825.857300 
	C233.400223,818.763428 226.274078,811.844238 219.269714,804.803894 
	C213.329514,798.833191 207.530045,792.722412 201.668304,786.673645 
z"/>
<path fill="#FEFFFF" opacity="1.000000" stroke="none" 
	d="
M201.354187,786.771545 
	C207.530045,792.722412 213.329514,798.833191 219.269714,804.803894 
	C226.274078,811.844238 233.400223,818.763428 240.778793,826.192993 
	C241.009766,827.091980 240.935471,827.533081 240.861206,827.974243 
	C238.902206,829.733398 236.851791,831.401672 234.998520,833.265991 
	C218.370636,849.993164 201.777542,866.754883 185.006104,883.813232 
	C171.306000,871.139282 157.774048,858.158569 143.068848,844.052368 
	C146.745148,840.820801 150.247574,838.093201 153.341873,834.962280 
	C168.060516,820.069458 182.661713,805.060608 197.327438,790.115417 
	C198.475449,788.945557 199.798416,787.947388 201.354187,786.771545 
z"/>
<path fill="#FDFFFF" opacity="1.000000" stroke="none" 
	d="
M496.826416,762.480957 
	C481.629578,778.044495 466.300446,793.316162 450.985168,808.601685 
	C448.636353,810.946045 446.351318,813.354309 443.038544,816.759033 
	C439.494598,812.145630 436.175568,807.824951 432.856537,803.504272 
	C432.370300,803.887146 431.884033,804.269958 431.397797,804.652771 
	C430.619324,805.221619 429.748322,805.698181 429.076019,806.372803 
	C412.851379,822.650024 396.645660,838.946167 380.450439,855.252747 
	C379.872375,855.834778 379.435791,856.557251 378.819336,857.541199 
	C374.073395,853.624146 369.441315,849.380127 364.363037,844.727356 
	C399.901215,808.450806 435.108337,772.512146 471.099823,735.772827 
	C479.835907,744.789429 488.267303,753.491455 496.826416,762.480957 
z"/>
<path fill="#4CB694" opacity="1.000000" stroke="none" 
	d="
M500.524841,921.983154 
	C498.925507,920.678528 497.662964,919.130005 496.257324,917.724670 
	C472.235016,893.706482 448.197205,869.703735 424.153473,845.706970 
	C422.628906,844.185425 421.027252,842.741089 418.875549,840.707031 
	C423.736633,835.836670 428.618500,830.943054 433.502991,826.052124 
	C443.507599,816.034241 443.508148,816.034973 453.370087,825.883118 
	C473.754486,846.238953 494.123688,866.610046 514.538513,886.935364 
	C517.828247,890.210632 521.321289,893.281799 524.887695,896.742249 
	C516.968445,905.293396 508.881714,913.549622 500.524841,921.983154 
z"/>
<path fill="#FDFFFF" opacity="1.000000" stroke="none" 
	d="
M307.266022,846.065857 
	C316.103210,837.306091 324.940369,828.546387 333.952759,819.509888 
	C342.147400,826.851562 350.166809,834.469971 359.029480,842.889404 
	C349.369537,852.228455 340.090607,861.199158 330.500488,870.306885 
	C322.768646,863.025574 315.347931,855.607178 307.581238,847.748779 
	C307.245514,846.894470 307.255768,846.480164 307.266022,846.065857 
z"/>
<path fill="#FEFFFF" opacity="1.000000" stroke="none" 
	d="
M1603.872070,251.210175 
	C1601.143921,248.825699 1598.222900,246.626801 1595.719971,244.025528 
	C1582.914673,230.717377 1570.217163,217.305527 1557.109741,203.539169 
	C1591.146729,168.786499 1626.274658,132.920105 1661.798096,96.649765 
	C1697.752075,131.890900 1733.610229,167.038147 1770.010498,202.716782 
	C1755.175659,217.809738 1740.434692,232.807281 1725.226074,247.623444 
	C1705.194824,227.780136 1685.631104,208.118210 1666.220337,188.610092 
	C1665.043579,189.162674 1664.498047,189.266220 1664.176880,189.591354 
	C1644.201538,209.818970 1624.243774,230.063889 1604.295898,250.318451 
	C1604.077759,250.539948 1604.010010,250.909637 1603.872070,251.210175 
z"/>
<path fill="#6DB5D3" opacity="1.000000" stroke="none" 
	d="
M1603.938477,251.537888 
	C1604.010010,250.909637 1604.077759,250.539948 1604.295898,250.318451 
	C1624.243774,230.063889 1644.201538,209.818970 1664.176880,189.591354 
	C1664.498047,189.266220 1665.043579,189.162674 1666.220337,188.610092 
	C1685.631104,208.118210 1705.194824,227.780136 1724.914429,247.744125 
	C1709.322632,264.285797 1693.583008,280.533234 1677.822266,296.760040 
	C1673.431274,301.280701 1668.977539,305.740265 1664.243530,310.541321 
	C1660.718506,307.403961 1657.400146,304.698547 1654.364502,301.706360 
	C1640.134033,287.680115 1625.984131,273.572113 1611.798706,259.500183 
	C1609.216919,256.939026 1606.603638,254.409698 1603.938477,251.537888 
z"/>
<path fill="#FEFFFF" opacity="1.000000" stroke="none" 
	d="
M1544.850952,636.301270 
	C1544.011719,635.806152 1543.003174,635.471558 1542.358398,634.791870 
	C1531.352417,623.193115 1520.391357,611.551941 1508.992920,599.466919 
	C1532.272705,575.809998 1556.763184,550.922729 1581.752686,526.154480 
	C1582.907837,525.957825 1583.712646,525.790527 1584.197998,525.304443 
	C1593.353149,516.135193 1602.444946,506.902679 1611.625854,497.759430 
	C1612.857300,496.533112 1614.497681,495.717651 1615.948730,494.711914 
	C1651.177246,529.289368 1686.405762,563.866821 1721.871948,598.677612 
	C1710.281006,610.566650 1698.959351,622.276428 1687.524658,633.874573 
	C1679.711792,641.799011 1671.741333,649.567932 1663.366699,657.130371 
	C1644.374023,638.447815 1625.816406,620.080933 1607.365234,601.607666 
	C1602.691162,596.928040 1598.356812,591.909241 1593.671509,586.835327 
	C1591.506348,588.848022 1590.277344,589.916260 1589.131348,591.067200 
	C1576.219360,604.035400 1563.305176,617.001343 1550.433472,630.009216 
	C1548.464233,631.999329 1546.706421,634.198669 1544.850952,636.301270 
z"/>
<path fill="#6DB5D3" opacity="1.000000" stroke="none" 
	d="
M1544.909180,636.624634 
	C1546.706421,634.198669 1548.464233,631.999329 1550.433472,630.009216 
	C1563.305176,617.001343 1576.219360,604.035400 1589.131348,591.067200 
	C1590.277344,589.916260 1591.506348,588.848022 1593.671509,586.835327 
	C1598.356812,591.909241 1602.691162,596.928040 1607.365234,601.607666 
	C1625.816406,620.080933 1644.374023,638.447815 1663.015747,657.215698 
	C1659.579468,661.684204 1656.212036,665.979004 1652.423462,669.863098 
	C1641.050293,681.523315 1629.515747,693.026184 1618.029785,704.576111 
	C1617.468750,705.140259 1616.769653,705.566956 1615.819092,706.301575 
	C1613.602295,704.388672 1611.381592,702.685974 1609.406738,700.734497 
	C1594.036621,685.547302 1578.719727,670.306152 1563.373779,655.094482 
	C1557.254761,649.029114 1551.103760,642.995972 1544.909180,636.624634 
z"/>
<path fill="#6EB6D3" opacity="1.000000" stroke="none" 
	d="
M1615.801025,494.443298 
	C1614.497681,495.717651 1612.857300,496.533112 1611.625854,497.759430 
	C1602.444946,506.902679 1593.353149,516.135193 1584.197998,525.304443 
	C1583.712646,525.790527 1582.907837,525.957825 1582.072266,526.034912 
	C1584.040771,523.300842 1586.064941,520.684631 1588.359497,518.332275 
	C1595.806885,510.697876 1603.328735,503.135498 1610.886108,495.610046 
	C1612.133423,494.368042 1613.221680,491.810455 1615.801025,494.443298 
z"/>
<path fill="#FEFFFF" opacity="1.000000" stroke="none" 
	d="
M76.745491,651.258972 
	C69.158531,644.063782 61.410931,637.028931 54.027512,629.630676 
	C45.810127,621.396790 37.924358,612.831970 29.570530,604.071838 
	C64.067764,568.843384 99.205971,532.960388 134.808044,496.603699 
	C170.839828,531.927551 206.779739,567.161377 243.062057,602.730835 
	C228.129776,617.918091 213.439941,632.858704 198.272858,647.640259 
	C178.226288,627.796082 158.656952,608.111023 138.801422,588.138123 
	C136.905167,589.939514 135.569656,591.139893 134.310013,592.415222 
	C116.771095,610.172058 99.235176,627.931946 81.722916,645.715088 
	C79.982170,647.482666 78.400810,649.407227 76.745491,651.258972 
z"/>
<path fill="#7CD0B8" opacity="1.000000" stroke="none" 
	d="
M76.848190,651.578979 
	C78.400810,649.407227 79.982170,647.482666 81.722916,645.715088 
	C99.235176,627.931946 116.771095,610.172058 134.310013,592.415222 
	C135.569656,591.139893 136.905167,589.939514 138.801422,588.138123 
	C158.656952,608.111023 178.226288,627.796082 197.971954,647.778687 
	C180.733887,665.977234 163.304291,683.863586 145.920731,701.794617 
	C143.152237,704.650269 140.590546,707.706482 137.699615,710.930420 
	C134.947983,708.631226 132.819305,707.080444 130.954926,705.259155 
	C113.440437,688.149353 95.968964,670.995422 78.498146,653.840942 
	C77.911949,653.265381 77.463539,652.549438 76.848190,651.578979 
z"/>
<path fill="#3E91BA" opacity="1.000000" stroke="none" 
	d="
M1833.961182,445.966400 
	C1834.292725,446.487335 1834.284302,446.897034 1834.328857,447.610352 
	C1828.144043,453.869965 1821.719971,459.646790 1815.744385,465.855316 
	C1812.628052,469.093018 1810.695679,469.407806 1807.381836,465.977600 
	C1796.043579,454.241516 1784.382080,442.817139 1772.799194,431.318909 
	C1771.531494,430.060394 1769.974487,429.093323 1768.188477,427.977570 
	C1767.906372,427.526978 1767.987305,427.089935 1768.075806,426.319397 
	C1774.396729,419.834137 1780.849487,413.816559 1786.961304,407.470764 
	C1789.764771,404.559998 1791.509766,404.877411 1794.244385,407.580780 
	C1807.261230,420.448761 1820.476440,433.116272 1833.961182,445.966400 
z"/>
<path fill="#4CB694" opacity="1.000000" stroke="none" 
	d="
M306.928955,845.953308 
	C307.255768,846.480164 307.245514,846.894470 307.285461,847.616333 
	C300.989471,853.999390 294.495575,859.930847 288.362762,866.214661 
	C285.519653,869.127686 283.703094,869.339783 280.741028,866.301697 
	C269.242126,854.507629 257.508636,842.941772 245.818848,831.334900 
	C244.551575,830.076599 243.001297,829.103271 241.221741,827.985962 
	C240.935471,827.533081 241.009766,827.091980 241.093018,826.315186 
	C247.292908,819.947571 253.668884,814.090454 259.598938,807.812195 
	C262.701935,804.527100 264.565460,804.897095 267.608948,807.923584 
	C280.461945,820.704773 293.574341,833.225037 306.928955,845.953308 
z"/>
</svg>